# xmcd
#
# Track frame offsets:
#	150
#	12670
#	29786
#	45029
#	56661
#	86392
#	99608
#	112746
#	122416
#	134311
#	150401
#	170618
#	183617
#	197841
#	209879
#	224582
#	239419
#	253074
#	267356
#	277515
#
# Disc length: 3978 seconds
#
# Revision: 0
# Processed by: cddbd v1.5.2PL0 Copyright (c) Steve Scherf et al.
# Submitted via: dBpowerAMP V4.0
#
DISCID=200f8814
DTITLE=David Allan Coe - Live At Billy Bob's Texas
DYEAR=2003
DGENRE=Country
TTITLE0=Ain't That The Way (Love's Supposed To Be)
TTITLE1=Talkin' The Blues
TTITLE2=Son Of The South
TTITLE3='59 Cadillac '57 Chevy
TTITLE4=Heaven Only Knows
TTITLE5=Storms Never Last
TTITLE6=Wreckless
TTITLE7=Nothin' To lose - Part 2
TTITLE8=Time Off For Bad Behavior
TTITLE9=When I Was A Young Man
TTITLE10=If That Ain't Country - Part 2
TTITLE11=Lay My Money Down
TTITLE12=Will You Remember Me
TTITLE13=Long Haired Redneck 2001
TTITLE14=Take This Job And Shove It
TTITLE15=Drank My Wife Away
TTITLE16=The Ride
TTITLE17=Free My Mind 
TTITLE18=Fallow Me
TTITLE19=You Never Even Call Me By My Name
EXTD=
EXTT0=
EXTT1=
EXTT2=
EXTT3=
EXTT4=
EXTT5=
EXTT6=
EXTT7=
EXTT8=
EXTT9=
EXTT10=
EXTT11=
EXTT12=
EXTT13=
EXTT14=
EXTT15=
EXTT16=
EXTT17=
EXTT18=
EXTT19=
PLAYORDER=
